<?xml version="1.0" encoding="UTF-8"?>
<svg width="7px" height="7px" viewBox="0 0 7 7" version="1.1" xmlns="http://www.w3.org/2000/svg" xmlns:xlink="http://www.w3.org/1999/xlink">
    <title>6E6C147E-B956-4AFB-BDFD-4298E6524588</title>
    <g id="Page-1" stroke="none" stroke-width="1" fill="none" fill-rule="evenodd">
        <g id="M02_Filter" transform="translate(-82.000000, -202.000000)" fill="#555555">
            <g id="UI-Kit/Forms/dropdown/filled" transform="translate(20.000000, 163.000000)">
                <g id="tag-1" transform="translate(13.000000, 29.000000)">
                    <g id="icon-clear" transform="translate(49.000000, 10.000000)">
                        <path d="M6.79529716,0.204702839 C6.5222776,-0.0682342795 6.07971287,-0.0682342795 5.80669332,0.204702839 L3.50437899,2.50701717 L1.20206466,0.204702839 C0.927731371,-0.0602571212 0.491664864,-0.0564678212 0.221977512,0.213219531 C-0.0477098401,0.482906883 -0.0514991402,0.91897339 0.21346082,1.19330668 L2.51577515,3.49562101 L0.21346082,5.79793534 C0.0317111175,5.97347507 -0.0411798973,6.23342295 0.0228034948,6.47786778 C0.0867868868,6.72231262 0.27768738,6.91321311 0.522132218,6.97719651 C0.766577055,7.0411799 1.02652493,6.96828888 1.20206466,6.78653918 L3.50437899,4.48422485 L5.80669332,6.78653918 C6.08102661,7.05149914 6.51709312,7.04770984 6.78678047,6.77802249 C7.05646782,6.50833514 7.06025712,6.07226863 6.79529716,5.79793534 L4.49298283,3.49562101 L6.79529716,1.19330668 C7.06823428,0.920287125 7.06823428,0.477722396 6.79529716,0.204702839 Z" id="Path"></path>
                    </g>
                </g>
            </g>
        </g>
    </g>
</svg>