<?xml version="1.0" encoding="UTF-8"?>
<svg width="16px" height="14px" viewBox="0 0 16 14" version="1.1" xmlns="http://www.w3.org/2000/svg" xmlns:xlink="http://www.w3.org/1999/xlink">
    <title>502BD778-239F-4C91-916E-33BF933DC671</title>
    <defs>
        <path d="M15,12 C15.5125714,12 15.9354694,12.3862857 15.9932682,12.8834315 L16,13 C16,13.552 15.552,14 15,14 L1,14 C0.487428571,14 0.0645306122,13.6137143 0.00673177843,13.1165685 L0,13 C0,12.448 0.448,12 1,12 L15,12 Z M15,7 C15.5125714,7 15.9354694,7.38628571 15.9932682,7.88343149 L16,8 C16,8.552 15.552,9 15,9 L1,9 C0.487428571,9 0.0645306122,8.61371429 0.00673177843,8.11656851 L0,8 C0,7.448 0.448,7 1,7 L15,7 Z M15,0 C15.552,0 16,0.448 16,1 L16,3 C16,3.552 15.552,4 15,4 L1,4 C0.448,4 0,3.552 0,3 L0,1 C0,0.448 0.448,0 1,0 L15,0 Z" id="path-1"></path>
    </defs>
    <g id="Page-1" stroke="none" stroke-width="1" fill="none" fill-rule="evenodd">
        <g id="D02_Task-Marketplace" transform="translate(-1347.000000, -144.000000)">
            <g id="icon/list" transform="translate(1347.000000, 144.000000)">
                <mask id="mask-2" fill="white">
                    <use xlink:href="#path-1"></use>
                </mask>
                <use id="icon-color" fill="#219174" xlink:href="#path-1"></use>
            </g>
        </g>
    </g>
</svg>